<svg t="1703576042303" class="icon" viewBox="0 0 1024 1024" version="1.1" xmlns="http://www.w3.org/2000/svg" p-id="3605" width="128" height="128"><path d="M0 128a51.2 51.2 0 0 1 51.2-51.2h350.208a51.2 51.2 0 0 1 47.104 31.0272l25.088 58.5728H972.8a51.2 51.2 0 0 1 51.2 51.2v537.6a51.2 51.2 0 0 1-51.2 51.2H51.2a51.2 51.2 0 0 1-51.2-51.2V128z" fill="#FFA000" p-id="3606"></path><path d="M140.8 249.6h742.4c34.1504 0 51.2 17.0496 51.2 51.2v460.8c0 34.1504-17.0496 51.2-51.2 51.2H140.8c-34.1504 0-51.2-17.0496-51.2-51.2v-460.8c0-34.1504 17.0496-51.2 51.2-51.2z" fill="#FFFFFF" p-id="3607"></path><path d="M51.2 332.8h921.6c34.1504 0 51.2 17.0496 51.2 51.2v512c0 34.1504-17.0496 51.2-51.2 51.2H51.2c-34.1504 0-51.2-17.0496-51.2-51.2v-512c0-34.1504 17.0496-51.2 51.2-51.2z" fill="#FFCA28" p-id="3608"></path></svg>
