<svg t="1718556135660" class="icon" viewBox="0 0 1024 1024" version="1.1" xmlns="http://www.w3.org/2000/svg" p-id="7199" width="128" height="128"><path d="M102.912 881.664c0 0.512 0 0.512 0 0-13.312 13.824-13.312 35.84 0.512 49.664 13.312 13.824 35.328 13.824 49.152 0l198.144-198.144 181.76 181.76c6.656 6.656 15.36 10.24 24.576 10.24h1.536c9.728-0.512 18.944-5.12 25.088-12.288 75.776-88.576 98.304-212.992 60.416-322.048l143.36-183.296c57.344 6.144 115.2-13.824 156.16-55.296 13.824-13.312 13.824-35.328 0-49.152l-222.72-223.232c-13.312-13.824-35.328-13.824-49.152 0-41.472 40.96-61.44 98.304-55.296 156.16l-189.952 148.48C320.512 354.304 205.824 378.88 121.856 450.56c-0.512 1.024-1.536 1.536-2.048 2.048-13.824 13.312-13.824 35.328 0 49.152l181.248 181.76-198.144 198.144z" fill="#797979" p-id="7200"></path></svg>
