<svg t="1713948892298" class="icon" viewBox="0 0 1024 1024" version="1.1" xmlns="http://www.w3.org/2000/svg" p-id="56705" width="128" height="128"><path d="M793.59 470.81h-112.6L515.39 934.3h87.32l37.92-124.26h190.38l37.92 124.26h91.02L793.59 470.81zM657.81 755.32l20.03-66.21c16.49-51.62 32.37-106.19 45.91-157.89l2-7.65h18.28l2.25 7.25c6.34 20.69 12.49 41.9 18.63 63.09 9.14 31.78 18.68 64.64 28.77 94.92l20.13 66.49h-156zM420.02 554.39l-7.04-6.85 6.59-7.32c73.93-82.55 124.89-176.1 151.36-278.02l2-7.67h86.27v-68.91H395.55V91.3H329.2v94.32H63.94v68.91H505.4l-4.3 13.37c-8.29 25.86-42.21 117.93-129.73 216.88l-7.94 9.04-7.64-9.34c-30.72-37.73-57.4-77.23-79.33-117.51h-80.83c27.88 58.77 64.49 116.16 108.95 170.78l6.24 7.7-7.44 6.5c-66.24 57.7-143.07 104.65-228.45 139.61l18.73 77.33c34.82-14.32 149.27-65.69 258.87-162.66l7.29-6.42 6.79 6.92c50.75 51.52 95.31 85.65 114.1 99.27l35.62-70.66c-34.11-24.74-65.68-51.27-96.31-80.95z" fill="#606266" p-id="56706"></path></svg>
