<svg t="1713948449301" class="icon" viewBox="0 0 1024 1024" version="1.1" xmlns="http://www.w3.org/2000/svg" p-id="52173" width="128" height="128"><path d="M824 824H200c-13.1 0-25.1-7.4-31-19.1-5.9-11.7-4.7-25.7 3.1-36.2l77.6-104.9V460c0-143.4 117.7-260 262.3-260s262.3 116.6 262.3 260v203.8l77.6 104.9c7.8 10.5 9 24.5 3.1 36.2-5.9 11.7-17.9 19.1-31 19.1z m-555.3-69.3h486.5l-43.5-58.8c-4.4-6-6.8-13.2-6.8-20.6V460c0-105.1-86.6-190.7-193-190.7S319 354.9 319 460v215.2c0 7.4-2.4 14.6-6.8 20.6l-43.5 58.9zM598.7 928H425.3c-19.1 0-34.7-15.5-34.7-34.7 0-19.2 15.5-34.7 34.7-34.7h173.3c19.1 0 34.7 15.5 34.7 34.7 0 19.2-15.5 34.7-34.6 34.7zM529.3 165.3h-34.7c-19.1 0-34.7-15.5-34.7-34.7S475.5 96 494.7 96h34.7c19.1 0 34.7 15.5 34.7 34.7s-15.6 34.6-34.8 34.6z" fill="#231815" p-id="52174"></path></svg>
